<svg width="24" height="25" viewBox="0 0 24 25" fill="none" xmlns="http://www.w3.org/2000/svg">
<rect width="24" height="24" rx="8" fill="white"/>
<g filter="url(#filter0_dii_2024_52)">
<path d="M11.3438 7.34375V11.3438H12.6562V10H12V9.34375H12.6562V8H12V7.34375H12.6562C12.6562 7.15625 12.5938 7 12.4688 6.875C12.3438 6.72917 12.1875 6.65625 12 6.65625C11.8125 6.65625 11.6562 6.72917 11.5312 6.875C11.4062 7 11.3438 7.15625 11.3438 7.34375ZM14 12.6562C14.8958 13.3021 15.3438 14.1979 15.3438 15.3438C15.3438 16.2604 15.0104 17.0417 14.3438 17.6875C13.6979 18.3333 12.9167 18.6562 12 18.6562C11.0833 18.6562 10.2917 18.3333 9.625 17.6875C8.97917 17.0417 8.65625 16.2604 8.65625 15.3438C8.65625 14.1979 9.10417 13.3021 10 12.6562V7.34375C10 6.80208 10.1979 6.33333 10.5938 5.9375C10.9896 5.54167 11.4583 5.34375 12 5.34375C12.5417 5.34375 13.0104 5.54167 13.4062 5.9375C13.8021 6.33333 14 6.80208 14 7.34375V12.6562Z" fill="#E4750E"/>
</g>
<defs>
<filter id="filter0_dii_2024_52" x="4.65625" y="3.34375" width="14.6875" height="21.3125" filterUnits="userSpaceOnUse" color-interpolation-filters="sRGB">
<feFlood flood-opacity="0" result="BackgroundImageFix"/>
<feColorMatrix in="SourceAlpha" type="matrix" values="0 0 0 0 0 0 0 0 0 0 0 0 0 0 0 0 0 0 127 0" result="hardAlpha"/>
<feOffset dy="2"/>
<feGaussianBlur stdDeviation="2"/>
<feComposite in2="hardAlpha" operator="out"/>
<feColorMatrix type="matrix" values="0 0 0 0 0.895833 0 0 0 0 0.459115 0 0 0 0 0.0559896 0 0 0 0.2 0"/>
<feBlend mode="normal" in2="BackgroundImageFix" result="effect1_dropShadow_2024_52"/>
<feBlend mode="normal" in="SourceGraphic" in2="effect1_dropShadow_2024_52" result="shape"/>
<feColorMatrix in="SourceAlpha" type="matrix" values="0 0 0 0 0 0 0 0 0 0 0 0 0 0 0 0 0 0 127 0" result="hardAlpha"/>
<feOffset dy="-1.63"/>
<feGaussianBlur stdDeviation="1.6"/>
<feComposite in2="hardAlpha" operator="arithmetic" k2="-1" k3="1"/>
<feColorMatrix type="matrix" values="0 0 0 0 0 0 0 0 0 0 0 0 0 0 0 0 0 0 0.25 0"/>
<feBlend mode="normal" in2="shape" result="effect2_innerShadow_2024_52"/>
<feColorMatrix in="SourceAlpha" type="matrix" values="0 0 0 0 0 0 0 0 0 0 0 0 0 0 0 0 0 0 127 0" result="hardAlpha"/>
<feOffset/>
<feGaussianBlur stdDeviation="1.63"/>
<feComposite in2="hardAlpha" operator="arithmetic" k2="-1" k3="1"/>
<feColorMatrix type="matrix" values="0 0 0 0 0 0 0 0 0 0 0 0 0 0 0 0 0 0 0.25 0"/>
<feBlend mode="normal" in2="effect2_innerShadow_2024_52" result="effect3_innerShadow_2024_52"/>
</filter>
</defs>
</svg>
