<svg width="24" height="25" viewBox="0 0 24 25" fill="none" xmlns="http://www.w3.org/2000/svg">
<rect width="24" height="24" rx="8" fill="white"/>
<g filter="url(#filter0_dii_2024_50)">
<path d="M12 5.34375C15.5625 8.36458 17.3438 10.9792 17.3438 13.1875C17.3438 14.0208 17.1979 14.7812 16.9062 15.4688C16.6146 16.1354 16.2188 16.7083 15.7188 17.1875C15.2188 17.6667 14.6458 18.0312 14 18.2812C13.375 18.5312 12.7083 18.6562 12 18.6562C11.2917 18.6562 10.6146 18.5312 9.96875 18.2812C9.34375 18.0312 8.78125 17.6667 8.28125 17.1875C7.78125 16.7083 7.38542 16.1354 7.09375 15.4688C6.80208 14.7812 6.65625 14.0208 6.65625 13.1875C6.65625 10.9792 8.4375 8.36458 12 5.34375ZM9.21875 13.3438C9.07292 13.3438 8.94792 13.4062 8.84375 13.5312C8.73958 13.6354 8.69792 13.7604 8.71875 13.9062C8.84375 14.5938 9.09375 15.1458 9.46875 15.5625C9.84375 15.9583 10.2708 16.25 10.75 16.4375C11.2292 16.625 11.7083 16.6979 12.1875 16.6562C12.3125 16.6562 12.4167 16.6146 12.5 16.5312C12.6042 16.4271 12.6562 16.3021 12.6562 16.1562C12.6562 16.0104 12.6042 15.8958 12.5 15.8125C12.3958 15.7083 12.2708 15.6562 12.125 15.6562C11.8333 15.6771 11.5104 15.6354 11.1562 15.5312C10.8229 15.4062 10.5208 15.2083 10.25 14.9375C9.97917 14.6458 9.80208 14.25 9.71875 13.75C9.69792 13.625 9.63542 13.5312 9.53125 13.4688C9.44792 13.3854 9.34375 13.3438 9.21875 13.3438Z" fill="#379ADC"/>
</g>
<defs>
<filter id="filter0_dii_2024_50" x="2.65625" y="3.34375" width="18.6875" height="21.3125" filterUnits="userSpaceOnUse" color-interpolation-filters="sRGB">
<feFlood flood-opacity="0" result="BackgroundImageFix"/>
<feColorMatrix in="SourceAlpha" type="matrix" values="0 0 0 0 0 0 0 0 0 0 0 0 0 0 0 0 0 0 127 0" result="hardAlpha"/>
<feOffset dy="2"/>
<feGaussianBlur stdDeviation="2"/>
<feComposite in2="hardAlpha" operator="out"/>
<feColorMatrix type="matrix" values="0 0 0 0 0.895833 0 0 0 0 0.459115 0 0 0 0 0.0559896 0 0 0 0.2 0"/>
<feBlend mode="normal" in2="BackgroundImageFix" result="effect1_dropShadow_2024_50"/>
<feBlend mode="normal" in="SourceGraphic" in2="effect1_dropShadow_2024_50" result="shape"/>
<feColorMatrix in="SourceAlpha" type="matrix" values="0 0 0 0 0 0 0 0 0 0 0 0 0 0 0 0 0 0 127 0" result="hardAlpha"/>
<feOffset dy="-1.63"/>
<feGaussianBlur stdDeviation="1.6"/>
<feComposite in2="hardAlpha" operator="arithmetic" k2="-1" k3="1"/>
<feColorMatrix type="matrix" values="0 0 0 0 0 0 0 0 0 0 0 0 0 0 0 0 0 0 0.25 0"/>
<feBlend mode="normal" in2="shape" result="effect2_innerShadow_2024_50"/>
<feColorMatrix in="SourceAlpha" type="matrix" values="0 0 0 0 0 0 0 0 0 0 0 0 0 0 0 0 0 0 127 0" result="hardAlpha"/>
<feOffset/>
<feGaussianBlur stdDeviation="1.63"/>
<feComposite in2="hardAlpha" operator="arithmetic" k2="-1" k3="1"/>
<feColorMatrix type="matrix" values="0 0 0 0 0 0 0 0 0 0 0 0 0 0 0 0 0 0 0.25 0"/>
<feBlend mode="normal" in2="effect2_innerShadow_2024_50" result="effect3_innerShadow_2024_50"/>
</filter>
</defs>
</svg>
